<svg width="71" height="74" viewBox="0 0 71 74" fill="none" xmlns="http://www.w3.org/2000/svg">
<path d="M68.9366 27.6558H32.1701V65.4513H68.9366V27.6558Z" fill="white"/>
<path d="M36.581 2.32927L36.5508 3.35787L35.8461 3.43187C35.4627 3.46332 34.5264 3.54749 33.7818 3.61687C33.0372 3.68624 31.9686 3.84072 31.4175 3.94617C30.8664 4.05162 30.2797 4.17649 30.1084 4.20794C29.8165 4.26067 29.4641 4.35502 28.5473 4.61772C28.2962 4.69079 27.8222 4.82769 27.4903 4.93222C26.6445 5.17364 25.6976 5.52052 25.5769 5.63614C25.4856 5.6924 25.3811 5.72122 25.2751 5.71939C25.1324 5.73271 24.9962 5.78752 24.882 5.87757C24.7846 5.95631 24.6709 6.01016 24.55 6.03482C24.4391 6.03482 23.7238 6.37059 22.2035 7.11614C20.9849 7.72479 18.0846 9.62382 17.0169 10.5164C16.685 10.7995 16.2519 11.1464 16.0602 11.2823C15.1638 11.9437 12.2537 15.0193 11.0157 16.6039C10.0687 17.8212 7.62185 21.7043 7.60144 22.0096C7.60144 22.0512 7.33519 22.6386 7.01746 23.3212C6.23203 24.9862 5.62764 26.5855 5.74834 26.7113C5.79893 26.7641 6.17168 26.5957 6.67489 26.2812C7.13816 25.9972 7.54109 25.7669 7.58103 25.7669C7.62096 25.7669 7.97419 25.63 8.39753 25.4626C10.0181 24.8216 11.4283 24.5598 13.19 24.57C13.9146 24.5719 14.6379 24.6315 15.3538 24.7485C17.0453 25.0741 18.9996 25.8816 20.2883 26.7835C21.0338 27.2978 21.2352 27.3292 21.7083 26.9935C22.081 26.7317 22.6348 26.3848 23.2587 26.0278C23.7122 25.766 25.0816 25.2304 25.9274 24.989C29.2405 24.0446 32.9387 24.6116 36.0449 26.5319C36.2292 26.6583 36.407 26.7948 36.5774 26.9407C36.9804 27.2978 37.4135 27.3191 37.8359 26.9935C38.7625 26.3117 40.2632 25.5764 41.8341 25.051C42.6195 24.7883 44.0697 24.5783 45.2066 24.5681C47.7945 24.5468 50.1207 25.2082 52.2862 26.5939L53.3237 27.2654L53.7461 27.0665C54.0152 26.9406 54.2745 26.793 54.5218 26.6253C55.5593 25.8909 57.6839 25.0528 59.1945 24.7568C60.6038 24.495 62.3362 24.4525 63.3533 24.6523C65.6093 25.1148 66.6157 25.5024 68.7511 26.7798C68.791 26.8011 68.8514 26.7594 68.8815 26.6753C68.9321 26.518 68.499 25.3211 67.8449 23.8725C67.6435 23.4424 67.371 22.8236 67.2299 22.5081C67.103 22.2208 66.962 21.9405 66.8074 21.6682C66.7187 21.5221 66.4853 21.1225 66.3034 20.7765C66.0114 20.2215 65.4478 19.3178 64.5922 18.0163C63.1518 15.8222 60.4627 12.8835 58.1064 10.9521C57.4523 10.4064 55.6498 9.06327 55.2469 8.81167C55.1581 8.74877 54.8031 8.53417 54.4712 8.31772C53.7461 7.86724 51.6117 6.72302 50.6949 6.31324C50.3328 6.14582 49.9094 5.94324 49.7586 5.86184C49.6141 5.78357 49.4571 5.73371 49.2953 5.71477C49.2008 5.71338 49.1086 5.68455 49.029 5.63152C48.9084 5.51589 48.2436 5.27447 47.2665 4.98402C46.8538 4.85822 46.3302 4.68987 46.1127 4.60662C45.9148 4.53084 45.7084 4.48142 45.4986 4.45954C45.3942 4.46236 45.2918 4.42991 45.2066 4.36704C45.1462 4.31432 44.9048 4.25142 44.6528 4.21997C44.4007 4.18852 43.7537 4.07012 43.1973 3.95634C42.2912 3.77134 41.5661 3.67884 38.766 3.43187L37.9602 3.35787L37.93 2.32927L37.8998 1.31177H36.6111L36.581 2.32927ZM41.133 12.458L41.3105 12.6994L41.5723 12.4478L41.8439 12.1851L42.1101 12.4682C42.3719 12.7457 42.3719 12.7522 42.1909 12.9621C42.0196 13.1471 41.9894 13.161 41.7782 13.0139C41.4755 12.8151 41.3451 12.8151 41.1134 13.0352C40.9359 13.2036 40.912 13.1925 40.6599 12.9307C40.4079 12.6689 40.3981 12.6467 40.5801 12.4367C40.8108 12.1639 40.9137 12.175 41.133 12.458ZM24.8189 12.5949C25.0106 12.8151 25.0408 12.9094 24.9601 13.0454C24.7888 13.3183 24.527 13.3183 24.2554 13.0565L24.0131 12.8151L24.235 12.5736C24.5065 12.2693 24.527 12.2693 24.8189 12.5949ZM27.4814 12.9723C27.5116 13.1508 27.5418 14.0222 27.5418 14.9037C27.5418 16.6769 27.572 16.7824 28.163 16.7195C28.4453 16.6982 28.5056 16.6353 28.5456 16.3837C28.6059 16.0368 28.8482 15.8796 28.8482 16.1941C28.8482 16.4781 29.1899 16.7611 29.4694 16.7195C29.631 16.6982 29.7312 16.5826 29.8022 16.3412C29.9229 15.911 30.0135 15.911 30.1945 16.3726C30.4164 16.9276 30.9702 16.8666 31.0705 16.2801C31.1308 15.9545 31.3021 15.9869 31.4636 16.3541C31.5941 16.6473 31.6749 16.6899 32.0476 16.7241C32.6014 16.7657 32.7727 16.6187 32.7727 16.1155C32.7727 15.1498 33.78 14.6984 34.3835 15.3801C35.0287 16.1044 35.1823 17.4058 34.6862 17.9516C34.3312 18.3512 33.9611 18.2985 33.4268 17.7842L32.9742 17.354L32.7124 17.6787C32.4204 18.0487 31.8861 18.1301 31.6651 17.8471C31.4938 17.6371 31.3625 17.6473 31.1007 17.91L30.8708 18.1301L30.4688 17.8887C30.0854 17.6685 30.0454 17.6685 29.8741 17.8258C29.6327 18.057 29.441 18.0459 29.0683 17.8258C28.7763 17.6473 28.7568 17.6473 28.5651 17.8258C28.4444 17.9414 28.2101 18.0043 27.8702 18.0043C27.4264 18.0043 27.3164 17.9627 27.1051 17.6898C26.7501 17.2588 26.6516 16.6298 26.6215 14.7613L26.601 13.1342L26.9436 12.8928C27.3767 12.5801 27.3971 12.5801 27.4779 12.9723H27.4814ZM48.0546 13.0879L48.2862 13.3081L48.5383 13.0667L48.8045 12.8151L49.0761 13.0981L49.3423 13.3821L49.1409 13.5911C48.9394 13.8011 48.9296 13.8122 48.6172 13.6226C48.3253 13.445 48.3049 13.445 48.0936 13.6439C47.8824 13.8427 47.8824 13.8437 47.6206 13.5597C47.3588 13.2757 47.3588 13.2766 47.5398 13.0667C47.759 12.804 47.7688 12.804 48.051 13.0879H48.0546ZM25.252 14.2109C25.4523 14.4465 25.6123 14.7162 25.7251 15.0082C25.8964 15.5632 25.7961 16.5308 25.5041 17.0765C25.1713 17.7055 24.7382 17.9266 23.7619 18.0015L22.9561 18.0543L22.8957 18.526C22.8109 19.1422 22.566 19.7224 22.1875 20.204C21.8751 20.6026 21.8325 20.6239 21.3 20.6239C20.3939 20.6239 19.5783 20.3085 20.0513 20.1411C21.2192 19.7313 22.5993 18.7027 22.5993 18.2513C22.5993 18.0663 22.2168 17.3698 22.1156 17.3698C22.0022 17.3119 21.897 17.2378 21.8032 17.1496L21.5521 16.9396L21.7935 16.467C21.9346 16.2154 22.0757 16.0045 22.1254 16.0045C22.1751 16.0045 22.357 16.1728 22.539 16.3745C22.8709 16.7445 22.8806 16.7445 23.7468 16.7445C24.3308 16.7445 24.7231 16.6927 24.9148 16.5872C25.3585 16.3458 25.2778 16.2514 24.6938 16.294C23.9687 16.3458 23.5054 16.0627 23.5054 15.5697C23.5054 14.6244 23.9989 13.8057 24.5625 13.8057C24.8189 13.8011 24.9805 13.8964 25.252 14.2109ZM41.7063 13.938C41.9787 14.0953 42.261 14.4838 42.4518 14.9555C42.6435 15.4485 42.6435 17.3901 42.4518 17.8942C42.0293 18.9959 41.4143 19.3844 40.0147 19.4473C38.8068 19.5 38.2726 19.3002 37.8501 18.6389C37.6078 18.2504 37.5839 18.1458 37.6282 17.453C37.6788 16.7186 37.93 15.9416 38.1013 16.047C38.1421 16.0785 38.1616 16.3513 38.1314 16.6557C38.1013 17.1182 38.1314 17.2745 38.3329 17.5807C38.6657 18.095 39.1388 18.242 40.3369 18.1791C41.4143 18.1375 41.9885 17.885 42.0994 17.4234C42.1882 17.0534 42.079 16.9507 41.6362 16.9507C41.1427 16.9507 40.4576 16.6677 40.3271 16.4161C40.1967 16.1645 40.2064 15.8805 40.3777 15.3061C40.5889 14.6447 40.8108 14.2146 41.0726 13.9944C41.3344 13.7743 41.4143 13.7697 41.7063 13.938ZM52.7938 15.0711C53.4887 15.3024 54.2742 15.5225 54.5457 15.554C54.8173 15.5854 55.0703 15.6696 55.0898 15.739C55.1093 15.8084 55.0392 16.0433 54.9291 16.2533C54.7516 16.5678 54.6469 16.6307 54.3754 16.6307C54.1632 16.6307 53.5491 16.8823 52.7539 17.2782L51.4644 17.9451L50.276 17.9877C49.211 18.0191 49.0583 17.9978 48.7255 17.8027C48.3705 17.5825 48.3528 17.5825 48.162 17.761C48.0208 17.8979 47.7484 17.9608 47.1946 17.9812C46.3293 18.0339 46.1678 18.1181 46.1678 18.5168C46.1678 18.8738 45.7444 19.8118 45.3424 20.3325L45.0202 20.7525L44.2649 20.6896C43.5594 20.6156 43.247 20.5046 43.247 20.3113C43.247 20.2696 43.6304 20.0495 44.0937 19.8081C44.9812 19.3456 45.7648 18.6537 45.7648 18.3281C45.7648 18.1597 45.6645 18.1181 45.1107 18.0506C44.6271 17.9978 44.375 17.9137 44.154 17.7148C43.8114 17.4206 43.7813 17.1478 43.9925 16.4133C44.2747 15.4578 44.6475 14.9546 45.0806 14.9546C45.3921 14.9546 45.9565 15.6021 46.1456 16.1571L46.3231 16.6825L46.8964 16.7139C47.5105 16.7454 47.531 16.7343 47.3597 16.43C47.1688 16.1256 47.3499 15.6742 47.8336 15.1923C48.4273 14.5938 48.8205 14.5726 49.2731 15.1081C49.6281 15.5281 49.6858 16.0211 49.424 16.4031C49.2838 16.6131 49.2838 16.6446 49.4346 16.6973C49.7568 16.8342 51.9321 16.6658 52.3447 16.4771C52.5666 16.3846 52.6998 16.2672 52.6465 16.2144C52.5258 16.0886 51.2265 15.5845 51.025 15.5845C50.9363 15.5845 50.7535 15.69 50.623 15.8158C50.4517 15.973 50.3567 16.0156 50.2804 15.9314C50.039 15.6789 50.8742 14.6364 51.3179 14.6364C51.4448 14.641 52.0962 14.8297 52.7938 15.0711Z" fill="#084981"/>
<path d="M33.52 15.7323C33.338 16.2364 33.9522 17.3806 34.3187 17.2336C34.7314 17.0763 34.2886 15.6796 33.8049 15.6065C33.6709 15.5852 33.5475 15.6379 33.52 15.7323ZM34.0232 16.278C34.1119 16.5093 33.993 16.6138 33.8821 16.4251C33.7711 16.2364 33.7614 16.1106 33.8723 16.1106C33.922 16.1106 33.9912 16.1874 34.0232 16.2799V16.278Z" fill="#084981"/>
<path d="M24.0131 14.9036C23.8223 15.145 23.9936 15.2736 24.5269 15.2736C25.0603 15.2736 25.1411 15.1681 24.7985 14.9165C24.5172 14.7075 24.1746 14.7075 24.0131 14.9036Z" fill="#084981"/>
<path d="M40.8711 15.1765C40.6936 15.3864 40.6936 15.3966 40.8809 15.5465C41.0921 15.7037 41.7977 15.7463 41.8776 15.5992C41.9486 15.4937 41.5554 15.1052 41.2741 15.022C41.133 14.9767 41.0025 15.0192 40.8711 15.1765Z" fill="#084981"/>
<path d="M47.9001 15.8063C47.6179 15.921 47.6481 16.0838 48.0004 16.3521C48.2019 16.5093 48.3554 16.5371 48.635 16.488C49.0983 16.3955 49.1986 16.1421 48.8764 15.8896C48.6146 15.6796 48.2622 15.6481 47.9001 15.8063Z" fill="#084981"/>
<path d="M44.5268 16.1876C44.3954 16.3134 44.4558 16.6177 44.6155 16.6806C44.8267 16.7648 45.4143 16.7648 45.4915 16.6704C45.6219 16.5446 45.1285 16.1154 44.8569 16.1154C44.7078 16.1108 44.5569 16.1423 44.5268 16.1876Z" fill="#084981"/>
<path d="M32.1701 32.2214V36.7872L36.581 36.7659L40.9812 36.7345L41.0123 32.19L41.0318 27.6575H32.1701V32.2214ZM39.7227 32.1687V35.4275L36.581 35.4062L33.4286 35.3747L33.3984 32.1419L33.3789 28.9201H39.7227V32.1687Z" fill="black"/>
<path d="M34.6879 32.1686V34.1629L36.581 34.1416L38.4643 34.1102L38.4944 32.1372L38.5148 30.1743H34.6879V32.1686Z" fill="black"/>
<path d="M44.8587 28.9155V30.1856L45.4799 30.1541L46.1012 30.1227L46.0808 28.9202L46.071 27.713L45.4569 27.6816L44.8525 27.6501L44.8587 28.9155Z" fill="black"/>
<path d="M47.3765 28.2857V28.9258L48.0102 28.8943L48.6315 28.8629L48.6616 28.2542L48.6918 27.6558H47.3765V28.2857Z" fill="black"/>
<path d="M52.4814 27.7287C52.4415 27.7611 52.4113 28.0441 52.4113 28.3586V28.9136H51.2132L51.183 29.5112L51.1528 30.1207L50.5316 30.1522L49.897 30.1836V30.7923C49.897 31.4638 49.8367 31.5323 49.2625 31.5323C48.7894 31.5323 48.7087 31.4278 48.6687 30.7978L48.6386 30.2206L48.0173 30.1892L47.3836 30.1577V32.782L48.0173 32.8134L48.6386 32.8449L48.6483 33.4424L48.659 34.0409L47.3898 34.0723L46.1207 34.1038L46.0905 34.7513L46.0604 35.3988L46.6949 35.4302L47.3295 35.4617L47.3597 36.0602L47.3898 36.6688H46.1775L46.15 36.075L46.1198 35.4765L45.4986 35.445L44.864 35.4136V32.8088L45.4986 32.7773L46.1198 32.7459L46.15 32.2316C46.1704 31.9485 46.1402 31.6766 46.0897 31.6229C45.9894 31.5184 42.4944 31.4444 42.3338 31.5388C42.2734 31.5813 42.245 31.8644 42.2636 32.1789L42.2938 32.7459L42.8973 32.7986L43.5017 32.8513L43.5319 33.4489L43.5621 34.0474L42.9275 34.0788L42.2938 34.1103V36.7345L42.9275 36.7659L43.5621 36.7974L43.5319 37.3959L43.5017 37.9943L41.6184 38.0258L39.7254 38.0461V39.306H38.5175V38.0461H32.1701V39.306H32.905C33.3257 39.3066 33.7461 39.331 34.1643 39.3791L34.6968 39.442L34.6666 40.0303L34.6365 40.6176L34.0152 40.6491L33.3807 40.6805V41.9302H32.1701V43.2835L32.7541 43.3149L33.3283 43.3464L33.3585 43.9449L33.3886 44.5535H35.8861L35.9162 45.201L35.9464 45.8624L36.581 45.8938L37.2155 45.9253L37.1863 46.5275L37.1561 47.1259L35.9269 47.1574L34.6986 47.1888L34.6684 47.8363L34.6382 48.4838H33.4286L33.3984 47.8225L33.3682 47.175H32.1701V55.0467H33.3789L33.3984 52.4567L33.4286 49.8538L34.6578 49.8223L35.8861 49.7909L35.9162 50.4522L35.9464 51.1136L37.2351 51.1451L38.5148 51.1765V53.6851H37.2049V52.4253H34.6879V55.0495H42.2317L42.2628 56.3297L42.2929 57.6247L42.8964 57.6774L43.5008 57.7292L43.5514 58.3591L43.602 58.9891L44.2055 58.9789L44.8099 58.9576L44.8605 58.349L44.9111 57.7292L45.495 57.6978L46.0692 57.6663V60.31L44.8401 60.2785L43.5976 60.2471L43.5674 59.5857L43.5372 58.9243L42.916 58.9558L42.2947 58.9872V65.3891L42.916 65.4215L43.5372 65.453L43.5674 64.8434L43.5976 64.2347L44.2188 64.2033L44.8401 64.1718L44.8702 62.8916L44.9004 61.6114L46.7934 61.58L48.6767 61.5587V60.297H49.8846V62.9212H51.1937V64.1811H48.6856V62.9212H46.0675V64.1811H48.6856V65.44L50.5786 65.4197L52.4619 65.3873L52.4921 64.1496L52.5223 62.9212H56.2382V64.1811H58.7454L58.7756 64.7786L58.8058 65.3873L59.4403 65.4197L60.0616 65.4511V64.1811H61.3715V65.44L63.2646 65.4197L65.1478 65.3873L65.178 63.467L65.1975 61.5467L65.7815 61.5781L66.3557 61.6096L66.3859 62.8898L66.4161 64.1848H67.7056L67.7358 62.8898L67.766 61.6096L68.3499 61.5781L68.9241 61.5467V57.6737H66.409V58.3027C66.409 58.8808 66.4294 58.9326 66.6504 58.9955C66.7624 59.0283 66.8809 59.0283 66.9929 58.9955C67.1287 58.9628 67.2699 58.9628 67.4056 58.9955C67.7278 59.0695 67.7278 59.0695 67.6976 59.6569L67.6674 60.2452L66.4391 60.2767L65.1966 60.3081V61.5569H63.8911V59.0381H64.3846C65.1603 59.0381 65.2002 58.9955 65.2002 58.2925V57.6839L64.5789 57.6524L63.9444 57.621L63.9142 57.0225L63.884 56.424L64.5186 56.3926L65.1532 56.3611L65.1833 54.3881L65.2029 52.4253H66.4116V51.1765L67.0462 51.1451L67.6674 51.1136L67.6976 50.4661L67.7278 49.8186L67.0941 49.7872L66.4596 49.7557L66.4294 49.1572L66.3992 48.5588L65.17 48.5273L63.9417 48.4959V47.2305L64.5763 47.199L65.1975 47.1676V45.9179H67.7056L67.7358 44.6229L67.766 43.3418L68.3198 43.29L68.8736 43.2372V41.982L67.6311 41.9506L66.3886 41.9191L66.4187 41.3206L66.4489 40.7231L67.0835 40.6916L67.7047 40.6602V38.0461H66.409V39.306H65.2002V38.0461H63.8911V39.306H62.5688L62.5989 39.9535L62.6291 40.6149L63.2637 40.6463L63.8849 40.6778V43.302L64.5195 43.2705L65.1407 43.2391L65.1904 42.6092L65.241 41.9792L65.825 41.9478L66.3992 41.9163V44.5507H62.5821V45.9151H61.3742V48.5393H62.5821V49.802H61.3742V51.1663H62.5821V52.4253H63.8911V53.6851H62.693L62.6628 53.0765L62.6327 52.478L61.3742 52.4253L60.1148 52.3735L60.0838 51.8C60.0633 51.4855 59.995 51.1913 59.9329 51.1525C59.8708 51.1136 59.601 51.0683 59.3391 51.0683H58.8555L58.835 49.148L58.8049 47.2379L58.1836 47.2064L57.5624 47.175L57.5322 48.4653L57.502 49.7603L56.8675 49.7918L56.2329 49.8232L56.2631 50.4707L56.2932 51.1182L57.5357 51.1497L58.764 51.1811V53.6897H53.7204V52.4253H55.0294V51.1765L54.5857 51.1136C53.8207 50.9878 53.7701 51.0294 53.7399 51.775L53.7097 52.4225H52.5116V51.1663H53.7204V49.802H55.0294V48.5421H53.7204V49.7909L53.0991 49.8223L52.4646 49.8538L52.4344 50.4421L52.4042 51.0294L51.1857 51.0923C50.5103 51.1349 49.6769 51.1663 49.3219 51.1663H48.6874V49.802H51.2043V48.5523L51.8389 48.5208L52.4601 48.4894L52.4903 47.828L52.5205 47.1805H55.0277V45.9318L54.4064 45.9003L53.7719 45.8689V44.6062L54.4064 44.5748L55.0277 44.5433V43.2946H48.6856V41.9302H49.8935V40.6704H51.2025V41.9302H52.5116V40.6704H51.2025V38.0461H48.6856V39.306H47.3765V36.7974L48.0102 36.7659L48.6315 36.7345L48.6616 35.4395L48.6918 34.1593H51.199V35.4275H49.8837L49.9139 36.075L49.9441 36.7363H51.1528L51.183 36.075L51.2132 35.4275H52.4113V38.0508H53.7204V38.6594C53.7204 38.9961 53.7408 39.3004 53.7603 39.3208C53.7798 39.3411 54.0834 39.3421 54.4153 39.3319L55.0294 39.2893V38.0461H53.7106L53.7408 36.7558L53.771 35.4746L54.4055 35.4432L55.0268 35.4117V36.7872H56.2356V35.4275H55.0294V34.163H57.5366L57.5677 33.5016L57.5979 32.8541L58.2315 32.8227L58.8528 32.7912V31.5425H58.5102C58.291 31.5376 58.0725 31.5166 57.8561 31.4796C57.5535 31.4167 57.5437 31.4065 57.5437 30.7978V30.1781H56.2382V30.7978C56.2382 31.2603 56.1974 31.4278 56.0767 31.4796C55.8655 31.5637 54.2538 31.5637 53.2873 31.4796L52.5116 31.4065V28.9155H53.7204V30.1744H55.0294V28.9155H57.5473V27.6575H55.0499C53.6698 27.6575 52.5116 27.6871 52.4814 27.7287ZM52.4113 33.4285V34.0585H51.2025V33.5035C51.2025 33.189 51.2327 32.905 51.2735 32.8735C51.3144 32.8421 51.5753 32.8005 51.8779 32.8005H52.4104L52.4113 33.4285ZM44.8587 36.0518V36.6818H43.5496V36.1268C43.5496 35.8113 43.5798 35.5283 43.6197 35.4968C43.6597 35.4654 43.9526 35.4238 44.2747 35.4238H44.8587V36.0518ZM46.0675 38.6761V39.306H44.8587V41.9302H46.0373L46.1074 40.7018C46.1473 40.0192 46.1882 39.4632 46.1962 39.4531C46.3863 39.4209 46.5786 39.4048 46.7713 39.405L47.3251 39.3735L47.3552 40.021L47.3854 40.6685H48.6847V39.306H49.1285C49.8438 39.306 49.8935 39.3476 49.8935 40.0515V40.6704H48.6856V41.9302H47.3765V44.5433L48.0102 44.5748L48.6315 44.6062L48.6616 45.2537L48.6918 45.9151H49.8802L49.9103 45.2537L49.9405 44.6062L51.183 44.5748L52.4113 44.5433V45.9179H51.2025V47.175H49.9041L49.874 47.8225L49.8438 48.4838H47.4262V47.2305L48.0608 47.199L48.682 47.1676V45.9179H46.0772L46.0471 47.199L46.0169 48.494L45.4427 48.5255L44.8587 48.5569V49.7955L46.1012 49.8269L47.3295 49.8584L47.3597 50.5059L47.3898 51.1673H48.6891V52.4262H49.897V53.686H48.6856V52.4253H46.1678V51.8592C46.1678 51.1978 46.0373 51.0405 45.4933 51.0609C44.8489 51.0923 44.8587 51.1136 44.8587 50.431V49.802H43.5594L43.5292 51.0822L43.499 52.3772L42.9248 52.4086L42.3409 52.4401V51.1663H38.5175V49.8121L37.8963 49.7807L37.2617 49.7492L37.2315 49.1508L37.2013 48.5523L37.8359 48.5208L38.4705 48.4894L38.5006 47.1944L38.5308 45.9133H37.2049V44.5535H35.997V43.2835L36.581 43.3149L37.1552 43.3464L37.1854 43.9449L37.2155 44.5535H38.5175V43.2946H39.7156L39.7458 42.6332L39.776 41.9857H40.9839V43.2456L40.3626 43.277L39.7281 43.3085V44.5572L41.6211 44.5785L43.5044 44.6099L43.5345 45.2574L43.5647 45.9188H44.864V44.5646L45.4986 44.5332L46.1198 44.5017V43.3464L44.8614 43.2946L43.6029 43.2419L43.5727 42.5805L43.5425 41.933H42.3409V40.6805L41.062 40.6491L39.7733 40.6176L39.7431 39.9563L39.713 39.2958L42.261 39.3162L44.8081 39.3374L44.8383 38.8231C44.8791 38.0572 44.8889 38.0461 45.5128 38.0461H46.0675V38.6761ZM38.5148 40.6186V41.9302H35.997V39.4216L36.5295 39.3791C36.8117 39.3587 37.3859 39.3374 37.7889 39.3273L38.514 39.306L38.5148 40.6186ZM65.2002 39.8212C65.2002 40.6297 65.1603 40.6713 64.4902 40.6713H63.8956V39.306H65.2046L65.2002 39.8212ZM65.1425 49.9694C65.1727 50.0619 65.2029 50.652 65.2029 51.282V52.4253H63.8911V51.1867C63.8911 50.505 63.9213 49.9065 63.9621 49.875C64.003 49.8436 64.2639 49.802 64.5559 49.802C64.9384 49.802 65.0901 49.8436 65.1425 49.9694ZM41.0123 53.0765L41.0424 53.6851H39.7227V53.1301C39.7227 52.8147 39.7529 52.5316 39.7937 52.4891C39.8346 52.4465 40.1159 52.4262 40.4274 52.4475L40.9812 52.4789L41.0123 53.0765ZM52.4317 53.0765L52.4619 53.7378L53.0965 53.7693L53.7177 53.8007V56.3093H51.2025V57.6737H52.4016L52.4317 58.3212L52.4619 58.9826L53.0965 59.014L53.7177 59.0455V60.2942H55.0268V58.9326H53.7106L53.7408 58.324L53.771 57.7255L54.4055 57.6941L55.0268 57.6626V56.4139H56.2356V57.6737H55.0294V58.9326H55.4625C55.6942 58.9326 56.2613 58.9641 56.721 59.0066L57.5473 59.0695L57.5269 60.9695L57.4967 62.8685L56.8754 62.9L56.2409 62.9314V60.297H55.0392L55.009 60.8955L54.9789 61.5041L54.3576 61.5356L53.723 61.567V60.297H52.4113V61.5569H51.2132L51.183 60.2619L51.1528 58.9817L49.9237 58.9502L48.6856 58.9225V60.31L48.0643 60.2785L47.4298 60.2471L47.3996 59.6486L47.3694 59.0603L48.0342 58.9872L48.6891 58.9141V57.6737H46.1678V56.4139L48.0102 56.3926L49.8438 56.3611L49.8935 55.7321L49.9441 55.1022L50.5786 55.0708L51.1999 55.0393V53.8007C51.1999 53.1181 51.2301 52.5307 51.2709 52.4993C51.3117 52.4678 51.5726 52.4253 51.8646 52.4253H52.3971L52.4317 53.0765ZM44.8587 54.4196V55.0495H46.0675V56.3093H43.5496V53.7896H44.8587V54.4196ZM48.6856 54.2836C48.6856 54.9968 48.6146 55.0708 47.9703 55.0236L47.4262 54.9921L47.3925 54.39L47.3623 53.7915H48.682L48.6856 54.2836ZM57.5269 55.6998L57.557 56.3093H56.2382V55.7543C56.2382 55.4398 56.2684 55.1559 56.3083 55.1142C56.3483 55.0726 56.6305 55.0513 56.9429 55.0726L57.4967 55.1041L57.5269 55.6998ZM62.5856 56.9948V58.9373H58.8581V55.0523H62.5856V56.9948ZM62.5856 60.9306V61.5606H61.3742V62.9249H62.5821V64.1848H61.3742V62.9212H60.0642V64.1811H58.8563V62.9212H60.0642V61.5569H58.8563V60.297H62.5838L62.5856 60.9306Z" fill="black"/>
<path d="M38.5175 45.2325V45.9142H39.7254V47.175H41.0345V45.9262L40.4132 45.8948L39.7786 45.8633L39.7485 45.2019L39.7183 44.5544H38.5175V45.2325Z" fill="black"/>
<path d="M42.2805 47.3249C42.2503 47.398 42.2406 47.6949 42.261 47.9724L42.2911 48.4867L42.9248 48.5182L43.5461 48.5496V47.175H42.9417C42.5228 47.175 42.3213 47.2194 42.2805 47.3249Z" fill="black"/>
<path d="M39.7227 49.1722V49.8021H41.0318V48.5422H39.7227V49.1722Z" fill="black"/>
<path d="M60.1352 56.3724C60.0953 56.414 60.0642 56.7285 60.0642 57.0652V57.6738H61.3839L61.3538 57.0125L61.3236 56.365L60.7698 56.3335C60.4574 56.3095 60.1725 56.3326 60.1352 56.3724Z" fill="black"/>
<path d="M60.0837 32.19L60.1139 36.7345H68.8753V27.7083L64.4644 27.6769L60.0642 27.6575L60.0837 32.19ZM67.6967 32.1372L67.6665 35.3701L64.5248 35.4016L61.3733 35.4228V28.9155H67.7162L67.6967 32.1372Z" fill="black"/>
<path d="M62.6229 30.3112C62.6025 30.3843 62.5927 31.2658 62.6025 32.2741L62.6326 34.1102L64.5257 34.1416L66.409 34.1629V30.1743H64.5452C63.1163 30.1743 62.6628 30.2058 62.6229 30.3112Z" fill="black"/>
<path d="M21.0426 29.0726C19.5827 29.8496 18.8975 31.424 19.3209 33.0612C19.4984 33.7957 19.7034 34.1527 20.2084 34.6458C21.0746 35.5171 22.2496 35.8214 23.3501 35.4783C23.9714 35.2794 24.3672 35.0269 24.8908 34.4608C25.5059 33.7994 25.7269 33.1796 25.7269 32.1409C25.7269 31.1021 25.5156 30.5563 24.8394 29.8284C24.1036 29.0412 23.7318 28.8839 22.5532 28.8414C21.6364 28.8099 21.4961 28.8312 21.0426 29.0726Z" fill="#084981"/>
<path d="M42.2805 29.0626C42.2503 29.1357 42.2406 29.4086 42.261 29.6602L42.2911 30.1227L42.9248 30.1541L43.5461 30.1856V28.9155H42.9417C42.5228 28.9155 42.3213 28.9572 42.2805 29.0626Z" fill="black"/>
<path d="M57.5473 36.1045V36.7973L58.1818 36.7659L58.8031 36.7344L58.8333 36.073L58.8634 35.4255H57.5473V36.1045Z" fill="black"/>
<path d="M20.9619 36.0749C20.5181 36.2007 18.6659 37.9009 17.7198 39.0562C17.3968 39.4549 16.914 40.0108 16.6619 40.305C16.1587 40.86 14.6686 42.8765 14.3358 43.4324C14.2134 43.6718 14.1477 43.9382 14.1441 44.2094C14.1426 44.4585 14.1055 44.7061 14.034 44.9438C13.9562 45.1585 13.893 45.3785 13.845 45.6024C13.8051 45.8022 13.6675 46.348 13.5433 46.8096C13.419 47.2711 13.2814 47.8382 13.2309 48.0685C13.1803 48.2988 13.0596 48.7928 12.9593 49.1711C12.7578 49.9268 12.7773 49.9111 11.912 49.7057C11.6396 49.6428 11.2171 49.5485 10.9651 49.4856C10.2497 49.3283 10.2098 49.2553 10.4326 48.5939C10.7547 47.6282 10.6438 47.3553 9.90007 47.3442C9.47762 47.334 9.47762 47.334 9.3365 47.8585C9.07025 48.8242 9.03387 48.8871 8.73212 48.8242C8.58124 48.7928 8.11797 48.667 7.70528 48.5412C6.52668 48.1952 5.92229 48.1712 5.44925 48.457C4.97622 48.7428 4.74902 49.1507 4.4375 50.4309C4.30704 50.9767 4.09493 51.8064 3.97423 52.268C3.85353 52.7296 3.63875 53.5278 3.51007 54.0523C3.38138 54.5768 3.16838 55.3538 3.05744 55.7839C2.9465 56.214 2.81515 56.7394 2.77522 56.9383C2.69445 57.3083 2.62434 57.5793 2.3217 58.5654C1.99954 59.6042 2.17083 60.4866 2.77522 60.9482C2.96692 61.0953 3.40978 61.2941 3.77188 61.3996C4.13398 61.505 4.62832 61.641 4.88037 61.7141C5.13242 61.7872 5.89744 62.0082 6.59147 62.1868C8.6762 62.7418 8.60609 62.7011 8.81022 63.2672C9.04185 63.8971 9.15279 64.0442 9.62583 64.2958C10.1388 64.5686 10.5719 64.5483 11.076 64.2329C11.2627 64.1157 11.4248 63.9606 11.5528 63.7768C11.6807 63.5929 11.7718 63.3841 11.8207 63.1628C11.8695 62.9415 11.8752 62.7122 11.8372 62.4886C11.7992 62.2649 11.7184 62.0516 11.5996 61.8612C11.4221 61.5883 11.3875 61.431 11.4381 61.1896C11.7931 59.7096 12.1632 58.1565 12.2945 57.6746C12.3833 57.3592 12.5759 56.6035 12.7383 55.9948C12.9007 55.3862 13.0702 54.7461 13.1208 54.5777C13.222 54.253 13.4536 53.329 13.7048 52.2652C13.7855 51.9193 13.9267 51.3939 14.0074 51.1108C14.0882 50.8278 14.2391 50.208 14.3491 49.7464C14.6411 48.5606 14.9437 47.4265 15.1345 46.7763L15.2961 46.2305H15.7593C16.3735 46.2305 16.8368 45.9678 17.3205 45.3277C17.5414 45.0234 18.0047 44.4027 18.3571 43.9319C18.7094 43.4611 19.0218 43.0818 19.0626 43.0818C19.1034 43.0818 19.1425 44.226 19.1425 45.632C19.1425 47.038 19.2037 48.5708 19.2534 49.0638L19.3475 49.9592L18.9925 50.6409C17.6027 53.2235 16.0726 57.3694 14.8337 61.851C14.6322 62.5956 15.1763 63.6769 15.8907 63.96C16.2634 64.1071 17.1332 64.1071 17.3994 63.96C18.0207 63.6242 18.2656 63.2255 18.6792 61.8325C18.91 61.0768 19.2224 60.0796 19.3839 59.618C19.5454 59.1565 19.7389 58.5265 19.8276 58.2222C19.9472 57.8135 20.0885 57.412 20.251 57.0197C20.3912 56.6627 20.5527 56.2742 20.5927 56.1585C20.6326 56.0429 20.9557 55.2983 21.308 54.5009C21.9292 53.0524 22.1538 52.6953 22.2443 52.9682C22.6375 54.1855 23.3821 56.547 23.564 57.1557C23.8356 58.0585 24.5909 60.3571 25.0444 61.6688C25.5378 63.0859 26.0011 63.5585 26.9081 63.5585C27.4823 63.5585 28.2775 63.1284 28.5491 62.6659C28.9219 62.0258 28.9121 61.5559 28.4994 60.3044C28.2979 59.6957 28.0965 59.0556 28.0459 58.8882C27.9758 58.6042 27.5019 57.1242 26.4546 53.9025C26.2336 53.2411 25.9106 52.2227 25.7295 51.6455C25.5485 51.0683 25.3568 50.5022 25.2964 50.3865C25.2361 50.2709 25.166 49.7779 25.1553 49.2839C25.1447 48.79 25.095 47.7114 25.0346 46.8706C24.9139 45.1594 24.8935 43.4065 24.9947 43.4065C25.0248 43.4065 25.2867 43.6266 25.5689 43.8995C26.0322 44.3509 26.7271 44.917 28.0459 45.9465C28.6299 46.3979 30.1404 47.3525 30.5131 47.4996C30.8859 47.6467 31.3492 47.4793 31.8222 47.0066L32.2047 46.6292L32.1541 45.5895C32.0938 44.3509 32.1346 44.4036 30.6134 43.3436C28.4382 41.8109 26.9986 40.4678 25.5547 38.5993C24.5278 37.2774 23.8329 36.5532 23.3093 36.2692C22.7857 35.9852 21.576 35.8844 20.9619 36.0749ZM9.08889 51.2921C9.26639 51.4771 9.23 52.3938 9.00902 53.2439C8.92377 53.5366 8.85648 53.8348 8.80755 54.1365C8.80755 54.2096 9.3507 54.8922 10.0154 55.6683C10.6802 56.4444 11.2446 57.1594 11.2846 57.2741C11.3547 57.5053 11.0831 57.9882 10.8914 57.9882C10.8115 57.9882 10.3988 57.7153 9.95509 57.3795C9.51134 57.0438 8.97884 56.6654 8.76673 56.5396C8.27328 56.2353 8.21293 56.288 7.87035 57.4008L7.6041 58.2194L7.94668 58.5654C8.32919 58.9354 8.37978 59.1537 8.13838 59.3627C8.00703 59.4682 7.80557 59.4367 6.91008 59.1426C5.63119 58.7226 5.49984 58.6283 5.66137 58.2509C5.75012 58.0511 5.85218 57.9882 6.08382 57.9882C6.42639 57.9882 6.78849 57.6737 6.78849 57.3583C6.82012 57.0856 6.87085 56.8157 6.94025 56.5507C7.04054 56.1511 7.06095 55.9208 6.98995 55.8468C6.91895 55.7728 6.21517 55.7108 5.39955 55.6794L3.9192 55.6267L3.94938 55.2567C3.95914 55.0569 4.00973 54.858 4.05943 54.8053C4.10913 54.7525 4.88569 54.5324 5.79183 54.3011C6.69797 54.0699 7.51358 53.8081 7.6041 53.7239C7.69463 53.6398 7.80557 53.3882 7.84639 53.1782C7.96709 52.5168 8.29014 51.6667 8.52089 51.405C8.75164 51.1432 8.90784 51.1034 9.08889 51.2921Z" fill="#084981"/>
<path d="M57.5473 38.676V39.2957L56.926 39.3272L56.2915 39.3586L56.2613 40.0061L56.2311 40.6675H58.7525V41.9301H57.5473V44.5433L56.926 44.5747L56.2915 44.6062V45.866H58.8057L58.8359 43.8921L58.8563 41.919L59.4403 41.9505L60.0145 41.9819L60.0447 42.6294L60.0749 43.2908H61.3742V44.5608L62.0078 44.5294L62.6291 44.4979V43.3463L62.0078 43.3149L61.3742 43.2834V39.2957L61.928 39.3161C62.2395 39.3374 62.5315 39.2957 62.5927 39.2319C62.6539 39.1681 62.6815 38.8961 62.6628 38.6131L62.6326 38.0988L62.0114 38.0673L61.3777 38.0359V39.3059H60.0642V38.0461H57.5473V38.676ZM60.0642 39.9876V40.6703H58.8563V39.4215L59.2388 39.379C60.1352 39.2846 60.0642 39.2319 60.0642 39.9876Z" fill="black"/>
<path d="M53.7204 41.3003V41.9303H55.0294V40.6704H53.7204V41.3003Z" fill="black"/>
<path d="M67.7163 54.3669V55.0495H66.3992L66.4294 55.697L66.4596 56.3584H67.6674L67.6976 55.697L67.7278 55.0495H68.9366L68.9064 54.3881L68.8762 53.7406L68.302 53.7092L67.718 53.6777L67.7163 54.3669Z" fill="black"/>
<path d="M32.1701 60.8742V65.44H41.0318V56.3093H32.1701V60.8742ZM39.7227 60.9269V64.1811H33.3789V61.0009C33.3789 59.2434 33.4091 57.7782 33.449 57.7468C33.4889 57.7153 34.9089 57.6737 36.6209 57.6737H39.7227V60.9269Z" fill="black"/>
<path d="M34.6879 60.9269V62.9212H38.5175L38.4971 60.9482L38.4669 58.9853L36.5836 58.9539L34.6906 58.9326L34.6879 60.9269Z" fill="black"/>
<path d="M53.7204 64.8102V65.4401H55.0294V64.1812H53.7204V64.8102Z" fill="black"/>
<path d="M4.81912 68.6351C4.78895 68.7081 4.78895 69.4426 4.7996 70.2723L4.82977 71.7939H5.63562L5.68532 70.954C5.73591 70.1465 5.74567 70.1151 5.98796 70.1151C6.23025 70.1151 6.23912 70.1465 6.28971 70.954L6.3403 71.7939H7.14614V70.8245C7.14614 70.0374 7.10532 69.8274 6.95445 69.6489C6.72281 69.3871 6.07848 69.3445 5.88945 69.586C5.70041 69.8274 5.63828 69.6914 5.63828 69.0828V68.537L5.25488 68.5259C5.041 68.5157 4.83953 68.5685 4.81912 68.6351Z" fill="#084981"/>
<path d="M16.4507 68.5045C16.4507 68.5258 16.2794 69.2815 16.0682 70.1945C15.7558 71.57 15.7052 71.8743 15.8259 71.9159C15.862 71.9331 15.9019 71.9392 15.9412 71.9337C15.9805 71.9281 16.0174 71.911 16.0478 71.8845C16.1587 71.7587 16.8536 68.6627 16.7933 68.5683C16.7525 68.4943 16.4711 68.4499 16.4507 68.5045Z" fill="#084981"/>
<path d="M17.7296 68.5683C17.6586 68.683 17.0347 71.4442 17.0249 71.6856C17.0143 71.8216 17.0746 71.8946 17.2024 71.8946C17.363 71.8946 17.434 71.7096 17.6657 70.6357C17.8166 69.9429 17.9878 69.1973 18.0482 68.9874C18.1085 68.7774 18.1183 68.5785 18.0881 68.5471C18.0359 68.5051 17.9709 68.4841 17.9051 68.488C17.8392 68.4919 17.7769 68.5204 17.7296 68.5683Z" fill="#084981"/>
<path d="M42.0391 68.8201C42.0391 69.1142 42.0595 69.1244 42.4216 69.0976C42.734 69.0661 42.7944 69.0236 42.7944 68.8145C42.7944 68.6055 42.7438 68.562 42.4216 68.5416C42.0595 68.5157 42.0391 68.537 42.0391 68.8201Z" fill="#084981"/>
<path d="M45.8962 68.6099C45.8554 68.683 45.6539 69.4498 45.4524 70.2999C45.1507 71.5949 45.1107 71.8724 45.2314 71.9159C45.2693 71.9325 45.3106 71.9384 45.3513 71.9328C45.392 71.9273 45.4306 71.9106 45.4631 71.8844C45.574 71.7586 46.268 68.6728 46.2077 68.5683C46.1278 68.4416 45.9867 68.4629 45.8962 68.6099Z" fill="#084981"/>
<path d="M57.2855 68.5786C57.2526 68.6727 57.2387 68.7728 57.2446 68.8727C57.2446 69.0929 57.2855 69.1142 57.7079 69.1142C58.1304 69.1142 58.1614 69.1031 58.1312 68.8302C58.1011 68.5888 58.0505 68.5527 57.7186 68.5471C57.51 68.537 57.305 68.5573 57.2855 68.5786Z" fill="#084981"/>
<path d="M61.6156 68.6351C61.5854 68.7081 61.5854 69.4426 61.5952 70.2723L61.6253 71.7939H62.4312L62.4614 71.0382C62.4915 70.2723 62.6327 69.9782 62.9246 70.0938C63.0356 70.1465 63.0862 70.3768 63.1021 70.9753L63.1323 71.7939H63.9382V70.8347C63.9382 70.0374 63.908 69.8274 63.7465 69.6489C63.5148 69.3871 62.8705 69.3445 62.6815 69.586C62.4924 69.8274 62.4294 69.6914 62.4294 69.0828V68.537L62.0469 68.5259C61.8375 68.5157 61.636 68.5685 61.6156 68.6351Z" fill="#084981"/>
<path d="M8.23334 68.82C8.05584 68.9356 7.90142 69.1141 7.90142 69.2186C7.89884 69.2702 7.88351 69.3203 7.85692 69.3638C7.83033 69.4074 7.79338 69.4431 7.74965 69.4675C7.66978 69.4989 7.59878 69.6358 7.59878 69.7829C7.59692 69.8442 7.60974 69.9051 7.63608 69.96C7.66242 70.0149 7.70145 70.0621 7.74965 70.0974C7.86059 70.1399 7.90142 70.3286 7.90142 70.8217C7.90142 71.7032 8.02212 71.8604 8.65668 71.8188C9.11907 71.7874 9.15989 71.7661 9.15989 71.5247C9.15989 71.3397 9.1093 71.2629 8.95843 71.2629C8.78714 71.2629 8.75697 71.1787 8.72679 70.7079C8.69662 70.2047 8.71703 70.1529 8.95843 70.0604C9.29035 69.9346 9.28059 69.4832 8.95843 69.4832C8.7969 69.4832 8.7472 69.399 8.72679 69.0318C8.68685 68.5369 8.6762 68.5258 8.23334 68.82Z" fill="#084981"/>
<path d="M10.1974 68.8097C9.96573 68.9355 9.81397 69.0928 9.81397 69.2084C9.81206 69.2618 9.79723 69.3137 9.77085 69.3595C9.74447 69.4053 9.7074 69.4434 9.6631 69.4702C9.61819 69.4939 9.58039 69.5299 9.55378 69.5744C9.52718 69.619 9.51281 69.6703 9.51222 69.7227C9.52011 69.8504 9.574 69.9704 9.6631 70.0585C9.76427 70.1427 9.81397 70.3841 9.81397 70.7827C9.81397 71.6152 9.98526 71.8428 10.6198 71.8428C10.8914 71.8428 11.1337 71.8114 11.1523 71.7586C11.2322 71.6217 11.0511 71.2656 10.91 71.2656C10.8213 71.2656 10.7494 71.0871 10.7086 70.7402C10.6385 70.1316 10.6589 70.0585 10.9304 70.0585C11.0716 70.0585 11.1213 69.9845 11.1213 69.743C11.1213 69.4813 11.0813 69.4286 10.8799 69.4286C10.6589 69.4286 10.6385 69.3971 10.689 69.0086C10.7512 68.5368 10.721 68.5156 10.1974 68.8097Z" fill="#084981"/>
<path d="M65.0289 68.82C64.8514 68.9356 64.697 69.1141 64.697 69.2187C64.695 69.2707 64.6801 69.3212 64.6536 69.3654C64.6272 69.4095 64.5901 69.4457 64.5461 69.4703C64.5012 69.494 64.4634 69.53 64.4368 69.5745C64.4102 69.6191 64.3958 69.6703 64.3952 69.7228C64.4031 69.8505 64.457 69.9705 64.5461 70.0586C64.6464 70.1511 64.697 70.3943 64.697 70.8346C64.697 71.706 64.8177 71.8632 65.4522 71.8216C65.9155 71.7902 65.9555 71.7689 65.9555 71.5275C65.9555 71.3425 65.9058 71.2657 65.754 71.2657C65.5827 71.2657 65.5525 71.1815 65.5224 70.7107C65.4922 70.2075 65.5126 70.1557 65.754 70.0632C66.0868 69.9374 66.0762 69.486 65.754 69.486C65.5934 69.486 65.5428 69.4018 65.5224 69.0346C65.4824 68.5369 65.4727 68.5258 65.0289 68.82Z" fill="#084981"/>
<path d="M11.6671 69.5645C11.6467 69.6385 11.6369 70.3628 11.6467 71.1602L11.6777 72.63H12.0327C12.3744 72.63 12.3877 72.6189 12.4152 72.1888L12.4454 71.7586L12.9779 71.8114C13.4714 71.8632 13.522 71.853 13.7767 71.5274C14.1592 71.0556 14.1689 70.2157 13.7864 69.7542C13.649 69.5823 13.4569 69.4675 13.2452 69.4308C13.0334 69.3942 12.816 69.438 12.6327 69.5544C12.4614 69.6598 12.401 69.6598 12.3664 69.5544C12.3016 69.3869 11.7381 69.3869 11.6671 69.5645ZM13.0569 70.1316C13.2983 70.3628 13.2885 70.9187 13.0365 71.1602C12.8457 71.3387 12.8253 71.3387 12.6336 71.1602C12.3922 70.9298 12.3718 70.4044 12.6034 70.1427C12.8049 69.9114 12.8253 69.9114 13.0569 70.1316Z" fill="#084981"/>
<path d="M14.5878 69.5758C14.5535 69.7236 14.5465 69.8768 14.5674 70.0272C14.5976 70.3047 14.6375 70.3205 15.0005 70.3205H15.4034V69.9014C15.4034 69.4917 15.3928 69.4815 15.0209 69.45C14.7591 69.4288 14.6278 69.4602 14.5878 69.5758Z" fill="#084981"/>
<path d="M18.2328 69.5127C18.1831 69.6052 18.8372 71.507 19.0085 71.717C19.0688 71.7901 19.2499 71.8428 19.4212 71.8215C19.7034 71.7901 19.754 71.729 19.935 71.1916C20.046 70.8558 20.1667 70.583 20.1968 70.583C20.227 70.583 20.3575 70.8605 20.4684 71.1814C20.6459 71.7799 20.6601 71.7901 21.0426 71.7901H21.4154L21.8077 70.6699C22.0198 70.0613 22.1627 69.5257 22.1298 69.4942C22.0218 69.447 21.9051 69.4256 21.7881 69.4313C21.4553 69.4313 21.3444 69.6099 21.2441 70.3027C21.1553 70.9326 20.992 70.9012 20.8003 70.2102C20.6291 69.5627 20.5279 69.4332 20.1862 69.4332C19.8445 69.4332 19.7424 69.559 19.5712 70.2416C19.501 70.546 19.4105 70.7966 19.3697 70.7966C19.2809 70.7966 19.0777 70.1251 19.0777 69.8411C19.0699 69.7351 19.0273 69.6352 18.957 69.5581C18.8274 69.4184 18.3136 69.3869 18.2328 69.5127Z" fill="#084981"/>
<path d="M22.3721 69.4915C22.3419 69.5229 22.483 70.0585 22.6943 70.6671L23.0865 71.7901H23.4699C23.8622 71.7901 23.8622 71.7799 24.0433 71.1815C24.1444 70.8559 24.2651 70.583 24.3157 70.583C24.3663 70.583 24.4764 70.8605 24.5775 71.1815C24.7683 71.7799 24.7684 71.7901 25.1615 71.7901H25.5538L25.915 70.7199C26.1165 70.1214 26.3277 69.6598 26.3783 69.67C26.4289 69.6802 26.6401 70.1741 26.8416 70.7513L27.1966 71.7901H27.5888C27.982 71.7901 27.982 71.7901 28.1835 71.1287C28.2944 70.7717 28.4044 70.4812 28.4346 70.4812C28.4648 70.4812 28.5864 70.7744 28.6964 71.1417C28.8784 71.7198 28.9281 71.7892 29.1899 71.8243C29.3514 71.8456 29.5227 71.8142 29.583 71.7513C29.7339 71.5931 30.4492 69.6099 30.3889 69.5044C30.3179 69.3786 29.7845 69.4212 29.6736 69.5571C29.5894 69.731 29.535 69.9188 29.5129 70.1121C29.4419 70.5312 29.291 70.8882 29.2307 70.7939C29.2103 70.7624 29.11 70.4581 28.9991 70.1121C28.7976 69.4822 28.7976 69.4822 28.4044 69.4822H28.0122L27.8409 70.101C27.7521 70.4479 27.6297 70.7412 27.5693 70.7624C27.509 70.7837 27.438 70.5839 27.4078 70.3212C27.2968 69.4887 27.2471 69.4508 26.3809 69.4508C25.9372 69.4508 25.5955 69.5026 25.5547 69.5655C25.4743 69.7608 25.4168 69.9654 25.3834 70.1751C25.323 70.4526 25.2325 70.6783 25.1722 70.6894C25.1118 70.7005 25.0009 70.4794 24.9201 70.1954C24.7195 69.5137 24.6485 69.4295 24.3264 69.4295C23.9643 69.4295 23.8631 69.5655 23.7051 70.1954C23.564 70.804 23.4025 70.7837 23.2614 70.1538C23.2232 69.9482 23.1637 69.7475 23.0839 69.5553C22.996 69.4286 22.483 69.3749 22.3721 69.4915Z" fill="#084981"/>
<path d="M32.1497 69.733C31.8479 70.016 31.8178 70.103 31.8178 70.6358C31.8178 71.1686 31.8479 71.2546 32.1497 71.5386C32.4222 71.7902 32.5633 71.8429 33.0265 71.8429C33.3283 71.8429 33.6806 71.7902 33.8253 71.7171C34.1075 71.5904 34.419 71.1714 34.3187 71.0696C34.1874 70.9438 33.5431 71.0067 33.3718 71.1751C32.9999 71.5312 32.5366 71.0594 32.6467 70.4508C32.7275 70.041 33.0301 69.8958 33.3318 70.1039C33.6141 70.3037 34.1475 70.3241 34.2486 70.1465C34.2886 70.0827 34.1874 69.905 33.9966 69.7265C33.7241 69.474 33.5937 69.4324 33.0798 69.4324C32.5659 69.4324 32.4319 69.4675 32.1497 69.733Z" fill="#084981"/>
<path d="M34.9293 69.6913C34.7882 69.8375 34.6977 69.9956 34.7279 70.0474C34.8388 70.226 35.4228 70.2371 35.7041 70.0687C35.9358 69.9327 35.9961 69.9327 36.1372 70.0474C36.3689 70.2472 36.2579 70.3249 35.516 70.4785C34.64 70.6635 34.3276 71.15 34.7909 71.6329C35.0128 71.8632 35.6784 71.9159 36.0094 71.7254C36.1603 71.6514 36.2517 71.6514 36.352 71.7356C36.5029 71.8614 37.1774 71.841 37.1374 71.7041C37.117 71.6625 37.1073 71.2527 37.1073 70.7911C37.1073 70.0252 37.0771 69.9198 36.8552 69.6895C36.6333 69.4591 36.5233 69.4268 35.8985 69.4268C35.2737 69.4268 35.1512 69.4601 34.9293 69.6913ZM36.1079 71.1186C35.8417 71.3387 35.634 71.3702 35.5435 71.2111C35.3926 70.9484 36.0174 70.6024 36.2491 70.8226C36.3094 70.8772 36.2588 70.9817 36.1079 71.1186Z" fill="#084981"/>
<path d="M38.0516 69.6285C37.3762 70.0586 37.3762 71.213 38.0409 71.6329C38.4847 71.916 39.3003 71.916 39.6526 71.6218C40.2259 71.1593 40.2259 70.1113 39.6526 69.6386C39.31 69.3556 38.4838 69.3556 38.0516 69.6285ZM39.0278 70.0586C39.31 70.2158 39.3003 71.0557 39.0181 71.213C38.9583 71.2541 38.8882 71.276 38.8166 71.276C38.745 71.276 38.6749 71.2541 38.6151 71.213C38.3631 71.0659 38.3436 70.4258 38.585 70.1428C38.7767 69.9217 38.7767 69.9217 39.0278 70.0586Z" fill="#084981"/>
<path d="M42.0675 69.597C42.0471 69.6599 42.0471 70.1742 42.0577 70.7514L42.0879 71.7901H42.7926V69.5017L42.45 69.4915C42.2707 69.4813 42.0994 69.5331 42.0675 69.597Z" fill="#084981"/>
<path d="M43.4484 70.5302V71.7059C43.4484 71.7586 43.6197 71.7901 43.8318 71.7901H44.2037L44.2543 71.0973C44.3049 70.4044 44.4859 70.0058 44.7078 70.1001C44.8853 70.163 45.0628 69.953 45.0628 69.67C45.0628 69.4702 45.0122 69.4286 44.7602 69.4286C44.6846 69.4248 44.6092 69.439 44.5396 69.4699C44.4699 69.5008 44.4079 69.5477 44.3581 69.6071C44.257 69.7856 44.257 69.7856 44.1567 69.6071C44.1067 69.5477 44.0445 69.5008 43.9748 69.4699C43.905 69.4389 43.8295 69.4248 43.7537 69.4286H43.4511L43.4484 70.5302Z" fill="#084981"/>
<path d="M46.6106 69.5645C46.5911 69.6385 46.5804 70.3628 46.5911 71.1602L46.6213 72.63H46.9763C47.3188 72.63 47.3313 72.6189 47.3588 72.1888L47.3889 71.7586L47.9214 71.8114C48.4149 71.8632 48.4655 71.853 48.7202 71.5274C49.1027 71.0556 49.1125 70.2157 48.73 69.7542C48.5926 69.5823 48.4005 69.4675 48.1887 69.4308C47.9769 69.3942 47.7596 69.438 47.5762 69.5544C47.4049 69.6598 47.3446 69.6598 47.31 69.5544C47.2452 69.3869 46.6825 69.3869 46.6106 69.5645ZM48.0004 70.1316C48.2418 70.3628 48.2321 70.9187 47.98 71.1602C47.7892 71.3387 47.7688 71.3387 47.578 71.1602C47.3357 70.9298 47.3117 70.5127 47.5372 70.1843C47.7182 69.9114 47.759 69.9012 48.0004 70.1316Z" fill="#084981"/>
<path d="M49.7524 69.6525C49.6121 69.7681 49.4861 69.9254 49.4861 70.0096C49.4861 70.2094 50.1012 70.2723 50.363 70.0937C50.6248 69.9152 50.9469 69.9467 50.9469 70.1668C50.9469 70.2723 50.7455 70.3666 50.3426 70.461C50.0097 70.534 49.6574 70.6709 49.5669 70.7653C49.4553 70.8868 49.3931 71.0485 49.3931 71.2167C49.3931 71.3849 49.4553 71.5466 49.5669 71.6681C49.8189 71.8984 50.5644 71.8984 50.8156 71.6681C50.9869 71.5108 51.0073 71.5108 51.128 71.6783C51.2167 71.8041 51.3596 71.8568 51.5513 71.8253L51.8327 71.7939L51.8131 70.8495C51.7821 69.6007 51.6516 69.4324 50.6949 69.4324C50.1659 69.4287 49.9663 69.4675 49.7524 69.6525ZM50.9709 71.0483C50.891 71.2583 50.4171 71.3841 50.276 71.238C50.1349 71.0918 50.3372 70.8282 50.631 70.7755C50.9248 70.7227 51.0419 70.8347 50.9709 71.0446V71.0483Z" fill="#084981"/>
<path d="M52.28 69.4916C52.2498 69.5332 52.3687 69.7746 52.5622 70.0373C52.7557 70.3 52.9172 70.5516 52.9172 70.5923C52.9172 70.633 52.7565 70.9179 52.5622 71.2019C52.3678 71.4859 52.2072 71.7366 52.2072 71.7791C52.2072 71.8217 52.3989 71.842 52.6305 71.8207C52.9926 71.7995 53.0938 71.7366 53.2642 71.4507C53.3751 71.2657 53.4958 71.115 53.5367 71.1039C53.5775 71.0928 53.6875 71.2722 53.8082 71.4739C53.9857 71.8096 54.0505 71.8439 54.473 71.8439C54.725 71.8439 54.9265 71.8124 54.9265 71.7699C54.8066 71.5476 54.6682 71.3369 54.5129 71.1399L54.1135 70.5775L54.5156 70.0734C54.7374 69.7959 54.899 69.5378 54.8581 69.4962C54.8173 69.4546 54.6265 69.4333 54.4144 69.4333C54.1126 69.4333 53.9911 69.4962 53.8207 69.7478C53.6991 69.9162 53.5686 70.0632 53.5384 70.0632C53.5083 70.0632 53.4071 69.9162 53.3467 69.7478C53.2464 69.4648 53.1861 69.4333 52.7929 69.4333C52.54 69.4287 52.3208 69.4601 52.28 69.4916Z" fill="#084981"/>
<path d="M55.372 69.5646C55.3436 69.9594 55.3368 70.3557 55.3516 70.7514L55.3818 71.7901H56.0918L56.1521 71.0871C56.2125 70.3629 56.3731 70.0058 56.6154 70.1002C56.7663 70.1631 57.0982 69.7015 56.9979 69.5331C56.9092 69.387 56.4139 69.3972 56.2524 69.5544C56.1415 69.6599 56.1113 69.6599 56.0749 69.5544C56.0066 69.387 55.4421 69.387 55.372 69.5646Z" fill="#084981"/>
<path d="M57.2855 69.586C57.2553 69.6489 57.2553 70.1743 57.265 70.7515L57.2952 71.7902H58.1011V69.4916L57.7186 69.4703C57.4967 69.4676 57.305 69.5129 57.2855 69.586Z" fill="#084981"/>
<path d="M58.8164 69.7543C58.3531 70.3204 58.5439 71.3703 59.1483 71.6219C59.4501 71.7588 59.6018 71.7486 59.9941 71.5802C60.145 71.5173 60.1716 71.5386 60.145 71.7375C60.1051 72.0844 59.8131 72.2416 59.561 72.0733C59.3865 71.9927 59.1981 71.9499 59.0072 71.9475C58.725 71.9475 58.6522 71.99 58.6522 72.1574C58.6522 72.5043 59.1253 72.7346 59.8308 72.7346C60.374 72.7346 60.4947 72.693 60.7263 72.4571C60.9784 72.1796 60.9926 72.1426 60.9988 70.8301C61.0085 69.487 61.0085 69.4768 60.7769 69.4426C60.6106 69.4269 60.4433 69.4588 60.2932 69.5351C60.1157 69.6396 60.0314 69.6396 59.9382 69.5452C59.8681 69.4722 59.6462 69.4194 59.4448 69.4194C59.1581 69.4287 59.0188 69.5018 58.8164 69.7543ZM59.9702 70.0586C60.2018 70.1946 60.2364 70.8143 60.011 71.003C59.6081 71.349 59.1847 70.72 59.4971 70.226C59.6924 69.9217 59.7021 69.9115 59.9737 70.0586H59.9702Z" fill="#084981"/>
<path d="M66.6308 69.6701C66.1676 70.1742 66.4294 70.7301 67.1944 70.8559C67.6781 70.9401 67.9798 71.1334 67.8795 71.2971C67.7793 71.4609 67.3861 71.4544 67.2343 71.2971C67.063 71.1186 66.5394 71.0973 66.409 71.2657C66.3282 71.3702 66.369 71.4507 66.5696 71.6218C66.7702 71.7929 66.9832 71.8429 67.4864 71.8429C68.0704 71.8429 68.1715 71.8114 68.4333 71.5386C68.594 71.3702 68.7253 71.1602 68.7253 71.0761C68.7253 70.7403 68.3623 70.4471 67.7686 70.3203C67.4464 70.2574 67.1545 70.1427 67.134 70.0789C67.0737 69.8939 67.4163 69.7959 67.6275 69.9328C67.8387 70.0697 68.483 70.1002 68.5736 69.9642C68.6046 69.9115 68.5035 69.7644 68.3623 69.6488C67.9594 69.3241 66.9326 69.3343 66.6308 69.6701Z" fill="#084981"/>
<path d="M14.618 70.9614C14.5772 71.003 14.547 71.2232 14.547 71.4442V71.8531L14.9801 71.8216C15.4034 71.7902 15.4034 71.7902 15.4034 71.3702C15.4034 70.9503 15.3928 70.9503 15.0484 70.9188C14.8496 70.8985 14.658 70.9188 14.618 70.9614Z" fill="#084981"/>
<path d="M30.3978 71.0447C30.3639 71.1925 30.3569 71.3456 30.3774 71.4961C30.4075 71.7736 30.4377 71.7902 30.8406 71.7902C31.0723 71.7902 31.264 71.7588 31.264 71.7061V71.2658C31.264 70.9087 31.2542 70.8958 30.861 70.8958C30.5992 70.8985 30.4279 70.9476 30.3978 71.0447Z" fill="#084981"/>
<path d="M40.5188 70.94C40.5188 70.9715 40.5082 71.1814 40.5082 71.3914L40.4984 71.7901H41.3859V71.3702C41.3859 70.9502 41.3859 70.9502 40.9634 70.9188C40.7194 70.8984 40.5286 70.9086 40.5188 70.94Z" fill="#084981"/>
</svg>
